<svg width="21" height="18" viewBox="0 0 21 18" fill="none" xmlns="http://www.w3.org/2000/svg">
<path fill-rule="evenodd" clip-rule="evenodd" d="M-5.72205e-06 8.99989C-5.72205e-06 8.66836 0.131689 8.35042 0.36611 8.116C0.600531 7.88158 0.918472 7.74989 1.24999 7.74989L15.7325 7.74989L10.365 2.38489C10.2488 2.26867 10.1566 2.13069 10.0937 1.97884C10.0308 1.827 9.99841 1.66425 9.99841 1.49989C9.99841 1.33553 10.0308 1.17278 10.0937 1.02093C10.1566 0.869078 10.2488 0.731106 10.365 0.614885C10.4812 0.498665 10.6192 0.406475 10.771 0.343576C10.9229 0.28068 11.0856 0.248306 11.25 0.248306C11.4144 0.248306 11.5771 0.28068 11.729 0.343576C11.8808 0.406475 12.0188 0.498665 12.135 0.614885L19.635 8.11489C19.7514 8.231 19.8438 8.36894 19.9068 8.5208C19.9698 8.67266 20.0022 8.83547 20.0022 8.99989C20.0022 9.1643 19.9698 9.32711 19.9068 9.47897C19.8438 9.63083 19.7514 9.76877 19.635 9.88489L12.135 17.3849C11.9003 17.6196 11.5819 17.7515 11.25 17.7515C10.9181 17.7515 10.5997 17.6196 10.365 17.3849C10.1303 17.1502 9.99841 16.8318 9.99841 16.4999C9.99841 16.1679 10.1303 15.8496 10.365 15.6149L15.7325 10.2499L1.24999 10.2499C0.918472 10.2499 0.600531 10.1182 0.36611 9.88377C0.131689 9.64935 -5.72205e-06 9.33141 -5.72205e-06 8.99989Z" fill="white"/>
</svg>
