<svg width="15" height="14" viewBox="0 0 15 14" fill="none" xmlns="http://www.w3.org/2000/svg">
<path d="M0.950902 6.16417L3.81766 8.86994L3.14505 12.9025C3.12654 13.0128 3.14425 13.1248 3.1954 13.2208C3.32345 13.4619 3.62522 13.5437 3.86947 13.4039L7.40691 11.3545L10.9488 13.085C11.0463 13.1329 11.1573 13.1452 11.2649 13.1219C11.3953 13.0932 11.5114 13.0135 11.5877 12.9002C11.664 12.787 11.6942 12.6495 11.6717 12.518L10.9918 8.54621L13.8531 5.58308C13.9198 5.51422 13.9669 5.42857 13.9892 5.33584C14.0114 5.24312 14.0079 5.14702 13.9791 5.05845C13.9502 4.96988 13.8971 4.89238 13.8258 4.83474C13.7546 4.7771 13.668 4.74163 13.5758 4.73235L9.61742 4.32634L7.84362 0.764382C7.79556 0.666606 7.71476 0.589168 7.6167 0.544747C7.36966 0.432385 7.07105 0.548234 6.94973 0.804397L5.18385 4.52583L1.22702 5.28795C1.11909 5.30903 1.01889 5.36478 0.942234 5.44856C0.748063 5.65624 0.75383 5.97692 0.950902 6.16417Z" fill="black"/>
</svg>
