<svg width="32" height="32" viewBox="0 0 32 32" fill="none" xmlns="http://www.w3.org/2000/svg">
<g clip-path="url(#clip0_594_410)">
<path d="M16 -0.0339355C7.15897 -0.0339355 -0.0350342 7.15806 -0.0350342 16.0001C-0.0350342 24.8421 7.15897 32.0341 16 32.0341C24.841 32.0341 32.035 24.8421 32.035 16.0001C32.035 7.15806 24.841 -0.0339355 16 -0.0339355ZM16 30.9661C7.74797 30.9661 1.03497 24.2521 1.03497 16.0001C1.03497 7.74806 7.74797 1.03406 16 1.03406C24.252 1.03406 30.965 7.74806 30.965 16.0001C30.965 24.2521 24.252 30.9661 16 30.9661Z" fill="#525255"/>
<path d="M24.7939 11.0461C24.9049 10.8407 24.9963 10.6255 25.0669 10.4031C25.0997 10.2999 25.1003 10.1892 25.0688 10.0857C25.0374 9.98215 24.9752 9.89059 24.8906 9.8231C24.806 9.75561 24.7029 9.71536 24.595 9.70768C24.487 9.7 24.3793 9.72524 24.2859 9.78006C23.7735 10.0845 23.2188 10.3113 22.6399 10.4531C21.9372 9.81884 21.0246 9.46724 20.0779 9.46606C19.5637 9.46646 19.0548 9.5707 18.5817 9.77253C18.1087 9.97435 17.6813 10.2696 17.3252 10.6406C16.969 11.0116 16.6914 11.4507 16.5091 11.9316C16.3267 12.4125 16.2433 12.9252 16.2639 13.4391C14.015 13.1559 11.9613 12.0179 10.5289 10.2611C10.4741 10.1945 10.4039 10.1422 10.3245 10.1085C10.2451 10.0749 10.1587 10.0609 10.0727 10.0678C9.98671 10.0746 9.90365 10.1022 9.83057 10.148C9.75749 10.1938 9.69656 10.2566 9.65294 10.3311C9.32497 10.894 9.1467 11.5316 9.13515 12.183C9.12359 12.8344 9.27914 13.4779 9.58694 14.0521C9.51145 14.0648 9.43893 14.0912 9.37294 14.1301C9.29209 14.1816 9.22552 14.2527 9.17938 14.3368C9.13324 14.4208 9.10902 14.5152 9.10894 14.6111C9.10894 15.7461 9.61395 16.7881 10.4279 17.4961L10.3929 17.5311C10.3315 17.6006 10.2892 17.6849 10.2703 17.7757C10.2513 17.8666 10.2564 17.9608 10.2849 18.0491C10.4547 18.5786 10.7381 19.0646 11.1154 19.4731C11.4926 19.8817 11.9546 20.2028 12.4689 20.4141C11.4125 20.9294 10.2303 21.1304 9.06294 20.9931C8.94295 20.9808 8.82229 21.0088 8.71986 21.0725C8.61744 21.1362 8.53904 21.232 8.49694 21.3451C8.45652 21.4589 8.45576 21.5831 8.49479 21.6975C8.53382 21.8118 8.61034 21.9097 8.71194 21.9751C10.299 22.9936 12.1452 23.5347 14.0309 23.5341C20.2109 23.5341 23.9049 18.5141 23.9049 13.6611L23.9039 13.4971C24.5029 13.0295 25.0231 12.4691 25.4449 11.8371C25.5088 11.7415 25.5402 11.6279 25.5345 11.5132C25.5288 11.3984 25.4863 11.2885 25.4133 11.1997C25.3402 11.111 25.2406 11.0481 25.129 11.0205C25.0175 10.9928 24.9 11.0018 24.7939 11.0461ZM23.0489 12.8011C22.9764 12.8532 22.918 12.9228 22.8793 13.0033C22.8405 13.0838 22.8225 13.1728 22.8269 13.2621C22.8329 13.3941 22.8359 13.5281 22.8359 13.6601C22.8359 17.9881 19.5429 22.4651 14.0319 22.4651C13.049 22.4655 12.0731 22.3005 11.1449 21.9771C12.2565 21.764 13.3008 21.2874 14.1899 20.5871C14.2765 20.5188 14.3399 20.4255 14.3714 20.3199C14.4029 20.2143 14.401 20.1015 14.366 19.997C14.331 19.8925 14.2645 19.8013 14.1757 19.736C14.0869 19.6707 13.9801 19.6344 13.8699 19.6321C13.4388 19.6238 13.0156 19.5144 12.6345 19.3125C12.2534 19.1107 11.925 18.8221 11.6759 18.4701C11.9289 18.4531 12.1769 18.4111 12.4179 18.3461C12.5346 18.3148 12.6372 18.245 12.709 18.148C12.7809 18.0509 12.8177 17.9324 12.8136 17.8117C12.8094 17.6911 12.7644 17.5754 12.686 17.4835C12.6077 17.3917 12.5005 17.3291 12.3819 17.3061C11.895 17.207 11.4441 16.9774 11.0775 16.6419C10.711 16.3063 10.4425 15.8774 10.3009 15.4011C10.5669 15.4681 10.8399 15.5071 11.1129 15.5161C11.3479 15.5151 11.5659 15.3711 11.6389 15.1451C11.7119 14.9191 11.6259 14.6701 11.4269 14.5381C10.9564 14.2246 10.5941 13.7735 10.3896 13.2464C10.185 12.7193 10.1481 12.1419 10.2839 11.5931C12.021 13.3754 14.3665 14.4367 16.8519 14.5651C17.0279 14.5661 17.1819 14.5031 17.2889 14.3741C17.3959 14.2451 17.4369 14.0741 17.3989 13.9101C17.2622 13.3211 17.3234 12.7034 17.573 12.1527C17.8226 11.6019 18.2468 11.1489 18.78 10.8635C19.3131 10.5782 19.9254 10.4765 20.5221 10.5742C21.1188 10.6719 21.6667 10.9636 22.0809 11.4041C22.143 11.4703 22.221 11.5197 22.3074 11.5475C22.3938 11.5753 22.4859 11.5807 22.5749 11.5631C22.7399 11.5301 22.9029 11.4921 23.0639 11.4481C22.9914 11.5024 22.9159 11.5528 22.8379 11.5991C22.7342 11.6626 22.6553 11.7595 22.6141 11.8739C22.5729 11.9884 22.5718 12.1134 22.6112 12.2285C22.6506 12.3435 22.728 12.4417 22.8306 12.5069C22.9333 12.5721 23.0551 12.6004 23.1759 12.5871L23.3579 12.5641C23.2577 12.6466 23.1547 12.7257 23.0489 12.8011Z" fill="#525255"/>
</g>
<defs>
<clipPath id="clip0_594_410">
<rect width="32" height="32" fill="white"/>
</clipPath>
</defs>
</svg>
