<svg width="40" height="40" viewBox="0 0 40 40" fill="none" xmlns="http://www.w3.org/2000/svg">
<path d="M19.6267 4C16.8914 3.99971 14.204 4.71746 11.8331 6.08148C9.46221 7.44551 7.49093 9.40803 6.11634 11.7728C4.74176 14.1376 4.01205 16.8218 4.00015 19.557C3.98825 22.2923 4.69459 24.9827 6.04855 27.3594L4.6423 32.2969C4.55216 32.6175 4.54904 32.9563 4.63326 33.2785C4.71748 33.6007 4.886 33.8947 5.12149 34.1302C5.35698 34.3657 5.65094 34.5342 5.97315 34.6184C6.29537 34.7026 6.63419 34.6995 6.9548 34.6094L11.8923 33.2031C13.9715 34.387 16.2948 35.0776 18.683 35.2217C21.0713 35.3657 23.4608 34.9594 25.6672 34.0339C27.8736 33.1085 29.838 31.6888 31.4089 29.8841C32.9799 28.0795 34.1154 25.9382 34.728 23.6253C35.3405 21.3125 35.4138 18.8898 34.942 16.5442C34.4702 14.1985 33.4661 11.9925 32.007 10.0963C30.5479 8.20011 28.6728 6.66431 26.5263 5.60734C24.3798 4.55036 22.0193 4.00045 19.6267 4ZM19.6267 34C17.0413 34.006 14.503 33.3093 12.2829 31.9844C12.186 31.935 12.0792 31.9083 11.9704 31.9063H11.7985L6.61105 33.3906C6.50505 33.4191 6.39343 33.4191 6.28741 33.3907C6.1814 33.3623 6.08473 33.3065 6.00713 33.2289C5.92952 33.1513 5.87372 33.0546 5.84533 32.9486C5.81695 32.8426 5.81698 32.731 5.84542 32.625L7.3298 27.4375C7.37374 27.2741 7.35127 27.1 7.2673 26.9531C5.65041 24.2245 4.98135 21.0377 5.36435 17.8892C5.74734 14.7407 7.16088 11.8072 9.38478 9.54577C11.6087 7.28433 14.5181 5.82189 17.6597 5.38624C20.8014 4.9506 23.9989 5.56622 26.7543 7.13721C29.5096 8.7082 31.668 11.1463 32.8932 14.0718C34.1185 16.9974 34.3418 20.246 33.5284 23.3116C32.715 26.3772 30.9105 29.0878 28.3961 31.021C25.8816 32.9543 22.7984 34.0017 19.6267 34ZM27.5173 22.5156L24.3298 20.7031C24.0392 20.5366 23.7095 20.4504 23.3746 20.4531C23.0396 20.4558 22.7114 20.5475 22.4235 20.7188L20.2673 22.0156C18.9685 21.342 17.9097 20.2832 17.236 18.9844L18.5329 16.8281C18.7042 16.5402 18.7958 16.2121 18.7986 15.8771C18.8013 15.5422 18.715 15.2125 18.5485 14.9219L16.736 11.7344C16.5855 11.4737 16.3692 11.2571 16.1087 11.1063C15.8482 10.9555 15.5527 10.8757 15.2517 10.875C13.9283 10.875 12.6589 11.3996 11.7217 12.3339C10.7844 13.2682 10.2558 14.536 10.2517 15.8594C10.2496 17.5843 10.5876 19.2927 11.2463 20.8869C11.9049 22.4811 12.8714 23.9298 14.0904 25.1503C15.3093 26.3707 16.7569 27.3389 18.3503 27.9994C19.9438 28.66 21.6518 29 23.3767 29H23.3923C24.7157 28.9959 25.9834 28.4673 26.9177 27.53C27.852 26.5928 28.3767 25.3234 28.3767 24C28.376 23.699 28.2962 23.4035 28.1454 23.143C27.9946 22.8825 27.778 22.6661 27.5173 22.5156ZM23.3923 27.75H23.3767C20.2258 27.7459 17.2054 26.4913 14.9788 24.2618C12.7523 22.0323 11.5017 19.0103 11.5017 15.8594C11.5058 14.8675 11.9027 13.9177 12.6055 13.2178C13.3083 12.5179 14.2598 12.125 15.2517 12.125C15.3317 12.1261 15.41 12.1484 15.4786 12.1895C15.5472 12.2307 15.6037 12.2893 15.6423 12.3594L17.4704 15.5469C17.5238 15.6452 17.5517 15.7553 17.5517 15.8672C17.5517 15.9791 17.5238 16.0892 17.4704 16.1875L16.0017 18.625C15.9476 18.7107 15.9163 18.8088 15.9108 18.91C15.9053 19.0112 15.9259 19.1121 15.9704 19.2031C16.7842 21.0163 18.2354 22.4675 20.0485 23.2812C20.1396 23.3258 20.2405 23.3463 20.3417 23.3409C20.4429 23.3354 20.541 23.3041 20.6267 23.25L23.0642 21.7812C23.1625 21.7279 23.2726 21.7 23.3845 21.7C23.4964 21.7 23.6065 21.7279 23.7048 21.7812L26.8923 23.6094C26.9624 23.648 27.021 23.7045 27.0621 23.7731C27.1033 23.8417 27.1256 23.92 27.1267 24C27.1267 24.9919 26.7337 25.9433 26.0339 26.6461C25.334 27.349 24.3841 27.7459 23.3923 27.75Z" fill="#525255"/>
</svg>
